<?xml version="1.0" standalone="no"?>
<!DOCTYPE svg PUBLIC "-//W3C//DTD SVG 20010904//EN"
 "http://www.w3.org/TR/2001/REC-SVG-20010904/DTD/svg10.dtd">
<svg version="1.0" xmlns="http://www.w3.org/2000/svg"
 width="175" height="55" viewBox="0 0 500.000000 500.000000"
 preserveAspectRatio="xMidYMid meet">

<g transform="translate(0.000000,500.000000) scale(0.100000,-0.100000)"
fill="#000000" stroke="none">
<path d="M2005 4429 c-324 -46 -625 -165 -856 -338 -125 -95 -311 -284 -396
-404 -231 -328 -358 -800 -325 -1210 40 -484 222 -869 566 -1194 223 -210 481
-351 783 -426 120 -30 123 -30 143 -12 21 19 20 19 -82 42 -687 153 -1209 691
-1340 1381 -30 156 -32 513 -5 662 72 385 234 705 486 959 432 435 1100 610
1731 455 658 -162 1178 -723 1286 -1389 17 -106 17 -106 37 -86 20 20 20 20
-2 135 -47 252 -164 517 -320 721 -112 148 -287 314 -440 416 -223 150 -472
244 -752 284 -113 16 -413 18 -514 4z"/>
<path d="M1740 3274 c-211 -24 -229 -27 -246 -45 -9 -10 -14 -25 -10 -35 6
-15 17 -16 84 -10 42 3 127 9 188 13 l112 6 7 -214 c4 -132 2 -338 -5 -539
-18 -465 -20 -414 15 -418 17 -2 38 3 47 10 28 22 42 270 41 746 l0 422 26 0
c14 -1 89 -5 166 -10 116 -7 144 -6 163 6 12 8 22 21 22 29 0 34 -39 40 -310
41 -146 1 -281 0 -300 -2z"/>
<path d="M2459 3254 c-51 -15 -68 -39 -45 -62 12 -12 28 -12 102 -2 76 10 89
9 103 -5 14 -14 16 -70 16 -483 0 -499 -4 -548 -51 -691 -30 -91 -79 -161
-127 -184 -54 -26 -135 -22 -192 9 -27 14 -62 36 -78 50 -45 37 -107 28 -107
-16 0 -20 82 -83 146 -111 68 -31 167 -36 235 -14 68 23 145 98 188 183 75
149 97 349 87 817 -7 377 -16 503 -37 516 -22 14 -189 9 -240 -7z"/>
<path d="M4111 2766 c-6 -8 -17 -33 -24 -57 -17 -59 -42 -60 -41 -2 0 29 -4
44 -14 48 -20 7 -23 3 -29 -42 -8 -64 48 -114 95 -84 7 4 19 30 26 57 17 69
41 67 40 -3 -2 -45 1 -53 16 -53 10 0 21 7 24 16 11 29 6 89 -10 112 -17 25
-65 30 -83 8z"/>
<path d="M4010 2421 l0 -69 95 -7 c53 -4 98 -5 101 -3 2 3 7 35 11 72 6 63 5
66 -16 66 -19 0 -21 -6 -21 -50 0 -47 -2 -50 -25 -50 -23 0 -25 4 -25 45 0 60
-27 63 -36 5 -5 -32 -11 -40 -28 -40 -19 0 -21 5 -18 50 4 45 2 50 -17 50 -19
0 -21 -6 -21 -69z"/>
<path d="M3983 2195 c-7 -20 -8 -20 62 -37 l60 -15 -77 -36 c-114 -53 -109
-62 59 -100 58 -13 62 -13 66 5 6 22 6 22 -62 38 l-55 13 70 35 c64 32 83 47
84 63 0 6 -172 49 -193 49 -4 0 -10 -7 -14 -15z"/>
<path d="M3025 2168 c-51 -27 -62 -98 -22 -136 35 -33 99 -30 126 4 31 40 28
87 -10 118 -33 28 -62 32 -94 14z"/>
<path d="M3889 1861 c-64 -65 -20 -171 71 -171 107 0 139 140 43 189 -39 20
-82 13 -114 -18z m116 -36 c29 -28 31 -42 9 -73 -21 -30 -68 -29 -99 3 -29 28
-31 42 -9 73 21 30 68 29 99 -3z"/>
<path d="M3745 1620 c-9 -15 8 -34 65 -70 59 -38 65 -51 39 -84 -19 -24 -19
-27 -4 -32 19 -8 50 20 59 52 8 28 -27 71 -92 113 -54 34 -58 36 -67 21z"/>
<path d="M3432 1258 c-23 -18 -42 -37 -42 -43 0 -5 29 -41 63 -79 48 -52 68
-68 81 -63 16 6 16 9 -5 38 -30 42 -15 57 42 40 36 -11 44 -10 57 3 16 16 15
16 -54 41 -6 2 -11 16 -11 31 0 32 -34 64 -67 64 -12 0 -41 -14 -64 -32z m87
-27 c8 -14 5 -23 -14 -41 l-24 -23 -20 24 c-18 22 -18 26 -4 42 21 22 50 22
62 -2z"/>
<path d="M3198 1094 c-70 -37 -64 -145 9 -183 63 -32 143 18 143 89 0 37 -30
81 -65 96 -42 17 -53 17 -87 -2z m87 -49 c29 -28 32 -61 8 -87 -36 -39 -103
-6 -103 51 0 59 53 79 95 36z"/>
<path d="M2885 951 c-4 -8 50 -176 61 -190 7 -8 134 43 134 54 0 22 -12 24
-52 9 -22 -8 -44 -14 -48 -14 -4 0 -20 34 -35 75 -25 69 -45 90 -60 66z"/>
<path d="M2738 912 c-11 -2 -22 -20 -29 -45 -18 -61 -23 -63 -55 -18 -27 37
-51 50 -67 35 -3 -3 16 -33 44 -66 27 -32 49 -67 49 -78 0 -32 11 -48 30 -43
14 4 17 12 13 43 -4 24 2 61 17 105 12 36 20 67 19 69 -2 1 -12 1 -21 -2z"/>
<path d="M2020 891 c0 -13 9 -21 30 -26 22 -5 30 -11 26 -23 -2 -10 -7 -35
-10 -57 -4 -22 -9 -52 -12 -67 -5 -23 -2 -28 15 -28 21 0 26 11 36 80 11 78
14 82 47 78 19 -3 32 0 35 9 8 20 3 22 -63 33 -32 6 -69 13 -81 15 -18 4 -23
1 -23 -14z"/>
<path d="M2331 778 c-19 -51 -36 -99 -39 -105 -2 -8 4 -13 16 -13 12 0 24 11
32 30 10 25 18 30 45 30 24 0 34 -6 43 -25 7 -14 20 -25 31 -25 20 0 19 2 -5
66 -45 121 -52 134 -71 134 -14 0 -27 -22 -52 -92z m57 -26 c-28 -5 -30 0 -16
39 l11 33 12 -34 c11 -32 10 -35 -7 -38z"/>
</g>
</svg>
